<svg width="64" height="64" viewBox="0 0 64 64" fill="none" xmlns="http://www.w3.org/2000/svg">
<path d="M52 13C52 10.7909 50.2091 9 48 9H16C13.7909 9 12 10.7909 12 13V50C12 52.2091 13.7909 54 16 54H48C50.2091 54 52 52.2091 52 50V13Z" fill="#FB703F"/>
<path d="M12 50C12 52.2091 13.7909 54 16 54H48C50.2091 54 52 52.2091 52 50V39H12V50Z" fill="#FB622B"/>
<path d="M12 13C12 10.7909 13.7909 9 16 9H48C50.2091 9 52 10.7909 52 13V24H12V13Z" fill="#FB865D"/>
<g filter="url(#filter0_d_1029_9505)">
<path d="M44 40H48" stroke="white" stroke-width="3"/>
</g>
<g filter="url(#filter1_d_1029_9505)">
<path fill-rule="evenodd" clip-rule="evenodd" d="M16 20.5H24.5V23.5H16V20.5Z" fill="white"/>
</g>
<g filter="url(#filter2_d_1029_9505)">
<path d="M23 14V40H40" stroke="white" stroke-width="3"/>
</g>
<g filter="url(#filter3_d_1029_9505)">
<path fill-rule="evenodd" clip-rule="evenodd" d="M39.5 20.5H26V23.5H39.5V48H42.5V23.5V20.5H39.5Z" fill="white"/>
</g>
<defs>
<filter id="filter0_d_1029_9505" x="41" y="36.5" width="10" height="9" filterUnits="userSpaceOnUse" color-interpolation-filters="sRGB">
<feFlood flood-opacity="0" result="BackgroundImageFix"/>
<feColorMatrix in="SourceAlpha" type="matrix" values="0 0 0 0 0 0 0 0 0 0 0 0 0 0 0 0 0 0 127 0" result="hardAlpha"/>
<feOffset dy="1"/>
<feGaussianBlur stdDeviation="1.5"/>
<feComposite in2="hardAlpha" operator="out"/>
<feColorMatrix type="matrix" values="0 0 0 0 0.627451 0 0 0 0 0.294118 0 0 0 0 0.172549 0 0 0 0.4 0"/>
<feBlend mode="normal" in2="BackgroundImageFix" result="effect1_dropShadow_1029_9505"/>
<feBlend mode="normal" in="SourceGraphic" in2="effect1_dropShadow_1029_9505" result="shape"/>
</filter>
<filter id="filter1_d_1029_9505" x="13" y="18.5" width="14.5" height="9" filterUnits="userSpaceOnUse" color-interpolation-filters="sRGB">
<feFlood flood-opacity="0" result="BackgroundImageFix"/>
<feColorMatrix in="SourceAlpha" type="matrix" values="0 0 0 0 0 0 0 0 0 0 0 0 0 0 0 0 0 0 127 0" result="hardAlpha"/>
<feOffset dy="1"/>
<feGaussianBlur stdDeviation="1.5"/>
<feComposite in2="hardAlpha" operator="out"/>
<feColorMatrix type="matrix" values="0 0 0 0 0.627451 0 0 0 0 0.294118 0 0 0 0 0.172549 0 0 0 0.4 0"/>
<feBlend mode="normal" in2="BackgroundImageFix" result="effect1_dropShadow_1029_9505"/>
<feBlend mode="normal" in="SourceGraphic" in2="effect1_dropShadow_1029_9505" result="shape"/>
</filter>
<filter id="filter2_d_1029_9505" x="18.5" y="12" width="24.5" height="33.5" filterUnits="userSpaceOnUse" color-interpolation-filters="sRGB">
<feFlood flood-opacity="0" result="BackgroundImageFix"/>
<feColorMatrix in="SourceAlpha" type="matrix" values="0 0 0 0 0 0 0 0 0 0 0 0 0 0 0 0 0 0 127 0" result="hardAlpha"/>
<feOffset dy="1"/>
<feGaussianBlur stdDeviation="1.5"/>
<feComposite in2="hardAlpha" operator="out"/>
<feColorMatrix type="matrix" values="0 0 0 0 0.627451 0 0 0 0 0.294118 0 0 0 0 0.172549 0 0 0 0.4 0"/>
<feBlend mode="normal" in2="BackgroundImageFix" result="effect1_dropShadow_1029_9505"/>
<feBlend mode="normal" in="SourceGraphic" in2="effect1_dropShadow_1029_9505" result="shape"/>
</filter>
<filter id="filter3_d_1029_9505" x="23" y="18.5" width="22.5" height="33.5" filterUnits="userSpaceOnUse" color-interpolation-filters="sRGB">
<feFlood flood-opacity="0" result="BackgroundImageFix"/>
<feColorMatrix in="SourceAlpha" type="matrix" values="0 0 0 0 0 0 0 0 0 0 0 0 0 0 0 0 0 0 127 0" result="hardAlpha"/>
<feOffset dy="1"/>
<feGaussianBlur stdDeviation="1.5"/>
<feComposite in2="hardAlpha" operator="out"/>
<feColorMatrix type="matrix" values="0 0 0 0 0.627451 0 0 0 0 0.294118 0 0 0 0 0.172549 0 0 0 0.4 0"/>
<feBlend mode="normal" in2="BackgroundImageFix" result="effect1_dropShadow_1029_9505"/>
<feBlend mode="normal" in="SourceGraphic" in2="effect1_dropShadow_1029_9505" result="shape"/>
</filter>
</defs>
</svg>
