<svg width="64" height="64" viewBox="0 0 64 64" fill="none" xmlns="http://www.w3.org/2000/svg">
<path d="M50 10C50 7.79086 48.2091 6 46 6H14C11.7909 6 10 7.79086 10 10V47C10 49.2091 11.7909 51 14 51H46C48.2091 51 50 49.2091 50 47V10Z" fill="#2DB49B"/>
<path d="M10 10C10 7.79086 11.7909 6 14 6H46C48.2091 6 50 7.79086 50 10V21H10V10Z" fill="#30C0A8"/>
<path d="M10 47C10 49.2091 11.7909 51 14 51H46C48.2091 51 50 49.2091 50 47V36H10V47Z" fill="#2AAA93"/>
<g filter="url(#filter0_d_1029_9408)">
<path d="M34 38C34 35.7909 35.7909 34 38 34H54C56.2091 34 58 35.7909 58 38V54C58 56.2091 56.2091 58 54 58H38C35.7909 58 34 56.2091 34 54V38Z" fill="url(#paint0_linear_1029_9408)"/>
</g>
<path d="M53.0318 47.0322L48.9995 43M53.0318 47.0322L48.9995 51M53.0318 47.0322L42.0317 47.0322C40.9272 47.0322 40.0317 46.1368 40.0317 45.0322L40.0317 41" stroke="white" stroke-width="2.5" stroke-linecap="round" stroke-linejoin="round"/>
<path d="M20.3511 27.168C19.5951 27.168 18.9465 26.986 18.4051 26.622C17.8638 26.258 17.5045 25.7027 17.3271 24.956L19.0071 24.06C19.1191 24.48 19.2825 24.7927 19.4971 24.998C19.7211 25.2033 20.0105 25.306 20.3651 25.306C20.8318 25.306 21.1631 25.138 21.3591 24.802C21.5551 24.4567 21.6531 23.9247 21.6531 23.206V16.752H23.6831V23.402C23.6831 24.7367 23.3705 25.698 22.7451 26.286C22.1198 26.874 21.3218 27.168 20.3511 27.168ZM29.2613 16.752C30.0733 16.752 30.7826 16.892 31.3893 17.172C31.9959 17.452 32.4626 17.8487 32.7893 18.362C33.1253 18.866 33.2933 19.4587 33.2933 20.14C33.2933 20.812 33.1253 21.4047 32.7893 21.918C32.4626 22.422 31.9959 22.814 31.3893 23.094C30.7826 23.3647 30.0733 23.5 29.2613 23.5H27.7633V27H25.7333V16.752H29.2613ZM29.0373 21.778C29.6719 21.778 30.1806 21.6427 30.5633 21.372C30.9459 21.092 31.1373 20.6813 31.1373 20.14C31.1373 19.5987 30.9459 19.188 30.5633 18.908C30.1806 18.6187 29.6719 18.474 29.0373 18.474H27.7633V21.778H29.0373ZM39.1693 23.066V21.316H43.0893V25.488C42.772 26.0013 42.2633 26.412 41.5633 26.72C40.8727 27.0187 40.1073 27.168 39.2673 27.168C38.2687 27.168 37.382 26.944 36.6073 26.496C35.8327 26.048 35.2307 25.4227 34.8013 24.62C34.372 23.8173 34.1573 22.898 34.1573 21.862C34.1573 20.8167 34.3767 19.8927 34.8153 19.09C35.2633 18.2873 35.8747 17.6667 36.6493 17.228C37.424 16.7893 38.2827 16.57 39.2253 16.57C40.168 16.57 40.9847 16.7847 41.6753 17.214C42.3753 17.634 42.8467 18.1753 43.0893 18.838L41.4093 19.804C41.204 19.3747 40.91 19.0387 40.5273 18.796C40.1447 18.544 39.692 18.418 39.1693 18.418C38.6187 18.418 38.124 18.558 37.6853 18.838C37.2467 19.118 36.9013 19.5193 36.6493 20.042C36.3973 20.5647 36.2713 21.1713 36.2713 21.862C36.2713 22.5713 36.3973 23.1873 36.6493 23.71C36.9107 24.2327 37.2747 24.634 37.7413 24.914C38.2173 25.194 38.768 25.334 39.3933 25.334C40.1213 25.334 40.6907 25.1333 41.1013 24.732V23.066H39.1693Z" fill="white"/>
<defs>
<filter id="filter0_d_1029_9408" x="30" y="30" width="32" height="32" filterUnits="userSpaceOnUse" color-interpolation-filters="sRGB">
<feFlood flood-opacity="0" result="BackgroundImageFix"/>
<feColorMatrix in="SourceAlpha" type="matrix" values="0 0 0 0 0 0 0 0 0 0 0 0 0 0 0 0 0 0 127 0" result="hardAlpha"/>
<feOffset/>
<feGaussianBlur stdDeviation="2"/>
<feComposite in2="hardAlpha" operator="out"/>
<feColorMatrix type="matrix" values="0 0 0 0 0.114423 0 0 0 0 0.51 0 0 0 0 0.287692 0 0 0 0.4 0"/>
<feBlend mode="normal" in2="BackgroundImageFix" result="effect1_dropShadow_1029_9408"/>
<feBlend mode="normal" in="SourceGraphic" in2="effect1_dropShadow_1029_9408" result="shape"/>
</filter>
<linearGradient id="paint0_linear_1029_9408" x1="46" y1="34" x2="46" y2="58" gradientUnits="userSpaceOnUse">
<stop offset="0.0610702" stop-color="#2DCDB0"/>
<stop offset="1" stop-color="#1D8E7A"/>
</linearGradient>
</defs>
</svg>
