<svg width="64" height="64" viewBox="0 0 64 64" fill="none" xmlns="http://www.w3.org/2000/svg">
<path d="M53 30C55.2091 30 57 31.7909 57 34L57 50C57 52.2091 55.2091 54 53 54L12 54C9.79086 54 8 52.2091 8 50L8 34C8 31.7909 9.79086 30 12 30L53 30Z" fill="#FFC5B1"/>
<path d="M8 13C8 10.7909 9.79086 9 12 9H32C34.2091 9 36 10.7909 36 13V50C36 52.2091 34.2091 54 32 54H12C9.79086 54 8 52.2091 8 50V13Z" fill="#FB703F"/>
<path d="M8 39H36V50C36 52.2091 34.2091 54 32 54H12C9.79086 54 8 52.2091 8 50V39Z" fill="#FB622B"/>
<path d="M8 13C8 10.7909 9.79086 9 12 9H32C34.2091 9 36 10.7909 36 13V24H8V13Z" fill="#FB865D"/>
<path d="M41 9L43.5263 9C48.4097 9 52.3684 12.9587 52.3684 17.8421L52.3684 24.4737M52.3684 24.4737L47.317 19.5156M52.3684 24.4737L56.9214 19.5156" stroke="#FB703F" stroke-width="3.15789" stroke-linecap="round" stroke-linejoin="round"/>
</svg>
